<mxfile host="app.diagrams.net" modified="2021-11-29T14:31:16.487Z" agent="5.0 (Windows)" etag="wpXhjcPPtWIQaqoFEc2t" version="15.8.7" type="github">
  <diagram id="C5RBs43oDa-KdzZeNtuy" name="Page-1">
    <mxGraphModel dx="329" dy="890" grid="1" gridSize="10" guides="1" tooltips="1" connect="1" arrows="1" fold="1" page="1" pageScale="1" pageWidth="827" pageHeight="1169" math="0" shadow="0">
      <root>
        <mxCell id="WIyWlLk6GJQsqaUBKTNV-0" />
        <mxCell id="WIyWlLk6GJQsqaUBKTNV-1" parent="WIyWlLk6GJQsqaUBKTNV-0" />
        <mxCell id="OqyqbeQfo_utEwE19FD3-31" value="" style="rounded=0;whiteSpace=wrap;html=1;fillColor=none;" parent="WIyWlLk6GJQsqaUBKTNV-1" vertex="1">
          <mxGeometry x="50" y="80" width="180" height="160" as="geometry" />
        </mxCell>
        <mxCell id="OqyqbeQfo_utEwE19FD3-34" value="" style="rounded=0;whiteSpace=wrap;html=1;fillColor=none;" parent="WIyWlLk6GJQsqaUBKTNV-1" vertex="1">
          <mxGeometry x="50" y="320" width="590" height="620" as="geometry" />
        </mxCell>
        <mxCell id="mqfXWWTs0hodroWTHxcf-3" style="edgeStyle=orthogonalEdgeStyle;rounded=0;orthogonalLoop=1;jettySize=auto;html=1;entryX=0.5;entryY=0;entryDx=0;entryDy=0;startArrow=diamondThin;startFill=1;endArrow=none;endFill=0;endSize=12;exitX=0.5;exitY=1;exitDx=0;exitDy=0;startSize=12;" parent="WIyWlLk6GJQsqaUBKTNV-1" source="mqfXWWTs0hodroWTHxcf-25" target="mqfXWWTs0hodroWTHxcf-30" edge="1">
          <mxGeometry relative="1" as="geometry">
            <mxPoint x="740" y="711" as="sourcePoint" />
            <mxPoint x="460" y="780" as="targetPoint" />
          </mxGeometry>
        </mxCell>
        <mxCell id="OqyqbeQfo_utEwE19FD3-32" value="Login Service" style="rounded=0;whiteSpace=wrap;html=1;fillColor=none;" parent="WIyWlLk6GJQsqaUBKTNV-1" vertex="1">
          <mxGeometry x="50" y="50" width="120" height="30" as="geometry" />
        </mxCell>
        <mxCell id="OqyqbeQfo_utEwE19FD3-33" value="Check-in Service" style="rounded=0;whiteSpace=wrap;html=1;fillColor=none;" parent="WIyWlLk6GJQsqaUBKTNV-1" vertex="1">
          <mxGeometry x="50" y="290" width="110" height="30" as="geometry" />
        </mxCell>
        <mxCell id="OqyqbeQfo_utEwE19FD3-40" value="1" style="text;html=1;strokeColor=none;fillColor=none;align=center;verticalAlign=middle;whiteSpace=wrap;rounded=0;" parent="WIyWlLk6GJQsqaUBKTNV-1" vertex="1">
          <mxGeometry x="230" y="640" width="40" height="20" as="geometry" />
        </mxCell>
        <mxCell id="OqyqbeQfo_utEwE19FD3-41" value="0.. *" style="text;html=1;strokeColor=none;fillColor=none;align=center;verticalAlign=middle;whiteSpace=wrap;rounded=0;" parent="WIyWlLk6GJQsqaUBKTNV-1" vertex="1">
          <mxGeometry x="340" y="640" width="40" height="20" as="geometry" />
        </mxCell>
        <mxCell id="OqyqbeQfo_utEwE19FD3-46" value="0.. *" style="text;html=1;strokeColor=none;fillColor=none;align=center;verticalAlign=middle;whiteSpace=wrap;rounded=0;" parent="WIyWlLk6GJQsqaUBKTNV-1" vertex="1">
          <mxGeometry x="100" y="602" width="40" height="20" as="geometry" />
        </mxCell>
        <mxCell id="OqyqbeQfo_utEwE19FD3-47" value="1.. *" style="text;html=1;strokeColor=none;fillColor=none;align=center;verticalAlign=middle;whiteSpace=wrap;rounded=0;" parent="WIyWlLk6GJQsqaUBKTNV-1" vertex="1">
          <mxGeometry x="100" y="428" width="40" height="20" as="geometry" />
        </mxCell>
        <mxCell id="OqyqbeQfo_utEwE19FD3-48" value="0.. *" style="text;html=1;strokeColor=none;fillColor=none;align=center;verticalAlign=middle;whiteSpace=wrap;rounded=0;" parent="WIyWlLk6GJQsqaUBKTNV-1" vertex="1">
          <mxGeometry x="190" y="602" width="40" height="20" as="geometry" />
        </mxCell>
        <mxCell id="OqyqbeQfo_utEwE19FD3-57" value="1" style="text;html=1;strokeColor=none;fillColor=none;align=center;verticalAlign=middle;whiteSpace=wrap;rounded=0;" parent="WIyWlLk6GJQsqaUBKTNV-1" vertex="1">
          <mxGeometry x="430" y="708" width="40" height="20" as="geometry" />
        </mxCell>
        <mxCell id="OqyqbeQfo_utEwE19FD3-58" value="0.. *" style="text;html=1;strokeColor=none;fillColor=none;align=center;verticalAlign=middle;whiteSpace=wrap;rounded=0;" parent="WIyWlLk6GJQsqaUBKTNV-1" vertex="1">
          <mxGeometry x="460" y="790" width="40" height="20" as="geometry" />
        </mxCell>
        <mxCell id="OqyqbeQfo_utEwE19FD3-62" value="0.. *" style="text;html=1;strokeColor=none;fillColor=none;align=center;verticalAlign=middle;whiteSpace=wrap;rounded=0;" parent="WIyWlLk6GJQsqaUBKTNV-1" vertex="1">
          <mxGeometry x="530" y="428" width="40" height="20" as="geometry" />
        </mxCell>
        <mxCell id="OqyqbeQfo_utEwE19FD3-63" value="0.. *" style="text;html=1;strokeColor=none;fillColor=none;align=center;verticalAlign=middle;whiteSpace=wrap;rounded=0;" parent="WIyWlLk6GJQsqaUBKTNV-1" vertex="1">
          <mxGeometry x="540" y="850" width="40" height="20" as="geometry" />
        </mxCell>
        <mxCell id="mqfXWWTs0hodroWTHxcf-0" value="0.. *" style="text;html=1;strokeColor=none;fillColor=none;align=center;verticalAlign=middle;whiteSpace=wrap;rounded=0;" parent="WIyWlLk6GJQsqaUBKTNV-1" vertex="1">
          <mxGeometry x="340" y="428" width="40" height="20" as="geometry" />
        </mxCell>
        <mxCell id="mqfXWWTs0hodroWTHxcf-2" style="edgeStyle=orthogonalEdgeStyle;rounded=0;orthogonalLoop=1;jettySize=auto;html=1;entryX=0;entryY=0.5;entryDx=0;entryDy=0;startArrow=diamondThin;startFill=1;endArrow=none;endFill=0;endSize=12;exitX=1;exitY=0.5;exitDx=0;exitDy=0;startSize=12;" parent="WIyWlLk6GJQsqaUBKTNV-1" source="mqfXWWTs0hodroWTHxcf-21" target="mqfXWWTs0hodroWTHxcf-26" edge="1">
          <mxGeometry relative="1" as="geometry">
            <mxPoint x="220" y="661" as="sourcePoint" />
            <mxPoint x="380" y="661" as="targetPoint" />
          </mxGeometry>
        </mxCell>
        <mxCell id="mqfXWWTs0hodroWTHxcf-13" style="edgeStyle=orthogonalEdgeStyle;rounded=0;orthogonalLoop=1;jettySize=auto;html=1;entryX=0.307;entryY=0;entryDx=0;entryDy=0;startArrow=none;startFill=0;endArrow=none;endFill=0;endSize=12;entryPerimeter=0;" parent="WIyWlLk6GJQsqaUBKTNV-1" source="mqfXWWTs0hodroWTHxcf-9" target="mqfXWWTs0hodroWTHxcf-20" edge="1">
          <mxGeometry relative="1" as="geometry">
            <mxPoint x="140" y="570" as="targetPoint" />
          </mxGeometry>
        </mxCell>
        <mxCell id="mqfXWWTs0hodroWTHxcf-9" value="Teacher" style="swimlane;fontStyle=0;childLayout=stackLayout;horizontal=1;startSize=26;fillColor=none;horizontalStack=0;resizeParent=1;resizeParentMax=0;resizeLast=0;collapsible=1;marginBottom=0;" parent="WIyWlLk6GJQsqaUBKTNV-1" vertex="1">
          <mxGeometry x="63" y="350" width="140" height="78" as="geometry" />
        </mxCell>
        <mxCell id="mqfXWWTs0hodroWTHxcf-10" value="int ID" style="text;strokeColor=none;fillColor=none;align=left;verticalAlign=top;spacingLeft=4;spacingRight=4;overflow=hidden;rotatable=0;points=[[0,0.5],[1,0.5]];portConstraint=eastwest;" parent="mqfXWWTs0hodroWTHxcf-9" vertex="1">
          <mxGeometry y="26" width="140" height="26" as="geometry" />
        </mxCell>
        <mxCell id="mqfXWWTs0hodroWTHxcf-11" value="String name" style="text;strokeColor=none;fillColor=none;align=left;verticalAlign=top;spacingLeft=4;spacingRight=4;overflow=hidden;rotatable=0;points=[[0,0.5],[1,0.5]];portConstraint=eastwest;" parent="mqfXWWTs0hodroWTHxcf-9" vertex="1">
          <mxGeometry y="52" width="140" height="26" as="geometry" />
        </mxCell>
        <mxCell id="mqfXWWTs0hodroWTHxcf-17" style="edgeStyle=orthogonalEdgeStyle;rounded=0;orthogonalLoop=1;jettySize=auto;html=1;entryX=0.75;entryY=0;entryDx=0;entryDy=0;startArrow=none;startFill=0;endArrow=none;endFill=0;endSize=12;" parent="WIyWlLk6GJQsqaUBKTNV-1" source="mqfXWWTs0hodroWTHxcf-14" target="mqfXWWTs0hodroWTHxcf-20" edge="1">
          <mxGeometry relative="1" as="geometry">
            <mxPoint x="172" y="570" as="targetPoint" />
          </mxGeometry>
        </mxCell>
        <mxCell id="mqfXWWTs0hodroWTHxcf-14" value="Student" style="swimlane;fontStyle=0;childLayout=stackLayout;horizontal=1;startSize=26;fillColor=none;horizontalStack=0;resizeParent=1;resizeParentMax=0;resizeLast=0;collapsible=1;marginBottom=0;" parent="WIyWlLk6GJQsqaUBKTNV-1" vertex="1">
          <mxGeometry x="390" y="412" width="140" height="78" as="geometry" />
        </mxCell>
        <mxCell id="mqfXWWTs0hodroWTHxcf-15" value="int ID" style="text;strokeColor=none;fillColor=none;align=left;verticalAlign=top;spacingLeft=4;spacingRight=4;overflow=hidden;rotatable=0;points=[[0,0.5],[1,0.5]];portConstraint=eastwest;" parent="mqfXWWTs0hodroWTHxcf-14" vertex="1">
          <mxGeometry y="26" width="140" height="26" as="geometry" />
        </mxCell>
        <mxCell id="mqfXWWTs0hodroWTHxcf-16" value="String name" style="text;strokeColor=none;fillColor=none;align=left;verticalAlign=top;spacingLeft=4;spacingRight=4;overflow=hidden;rotatable=0;points=[[0,0.5],[1,0.5]];portConstraint=eastwest;" parent="mqfXWWTs0hodroWTHxcf-14" vertex="1">
          <mxGeometry y="52" width="140" height="26" as="geometry" />
        </mxCell>
        <mxCell id="mqfXWWTs0hodroWTHxcf-19" style="edgeStyle=orthogonalEdgeStyle;rounded=0;orthogonalLoop=1;jettySize=auto;html=1;exitX=1;exitY=0.5;exitDx=0;exitDy=0;entryX=1;entryY=0.5;entryDx=0;entryDy=0;startArrow=none;startFill=0;endArrow=none;endFill=0;endSize=12;" parent="WIyWlLk6GJQsqaUBKTNV-1" source="mqfXWWTs0hodroWTHxcf-15" target="mqfXWWTs0hodroWTHxcf-31" edge="1">
          <mxGeometry relative="1" as="geometry">
            <mxPoint x="540" y="845" as="targetPoint" />
          </mxGeometry>
        </mxCell>
        <mxCell id="mqfXWWTs0hodroWTHxcf-20" value="Course" style="swimlane;fontStyle=0;childLayout=stackLayout;horizontal=1;startSize=26;fillColor=none;horizontalStack=0;resizeParent=1;resizeParentMax=0;resizeLast=0;collapsible=1;marginBottom=0;" parent="WIyWlLk6GJQsqaUBKTNV-1" vertex="1">
          <mxGeometry x="90" y="630" width="140" height="78" as="geometry" />
        </mxCell>
        <mxCell id="mqfXWWTs0hodroWTHxcf-21" value="String name" style="text;strokeColor=none;fillColor=none;align=left;verticalAlign=top;spacingLeft=4;spacingRight=4;overflow=hidden;rotatable=0;points=[[0,0.5],[1,0.5]];portConstraint=eastwest;" parent="mqfXWWTs0hodroWTHxcf-20" vertex="1">
          <mxGeometry y="26" width="140" height="26" as="geometry" />
        </mxCell>
        <mxCell id="mqfXWWTs0hodroWTHxcf-22" value="String description" style="text;strokeColor=none;fillColor=none;align=left;verticalAlign=top;spacingLeft=4;spacingRight=4;overflow=hidden;rotatable=0;points=[[0,0.5],[1,0.5]];portConstraint=eastwest;" parent="mqfXWWTs0hodroWTHxcf-20" vertex="1">
          <mxGeometry y="52" width="140" height="26" as="geometry" />
        </mxCell>
        <mxCell id="mqfXWWTs0hodroWTHxcf-25" value="Lecture" style="swimlane;fontStyle=0;childLayout=stackLayout;horizontal=1;startSize=26;fillColor=none;horizontalStack=0;resizeParent=1;resizeParentMax=0;resizeLast=0;collapsible=1;marginBottom=0;" parent="WIyWlLk6GJQsqaUBKTNV-1" vertex="1">
          <mxGeometry x="390" y="630" width="140" height="78" as="geometry" />
        </mxCell>
        <mxCell id="mqfXWWTs0hodroWTHxcf-26" value="Date startTime" style="text;strokeColor=none;fillColor=none;align=left;verticalAlign=top;spacingLeft=4;spacingRight=4;overflow=hidden;rotatable=0;points=[[0,0.5],[1,0.5]];portConstraint=eastwest;" parent="mqfXWWTs0hodroWTHxcf-25" vertex="1">
          <mxGeometry y="26" width="140" height="26" as="geometry" />
        </mxCell>
        <mxCell id="mqfXWWTs0hodroWTHxcf-27" value="String location" style="text;strokeColor=none;fillColor=none;align=left;verticalAlign=top;spacingLeft=4;spacingRight=4;overflow=hidden;rotatable=0;points=[[0,0.5],[1,0.5]];portConstraint=eastwest;" parent="mqfXWWTs0hodroWTHxcf-25" vertex="1">
          <mxGeometry y="52" width="140" height="26" as="geometry" />
        </mxCell>
        <mxCell id="mqfXWWTs0hodroWTHxcf-30" value="CheckIn" style="swimlane;fontStyle=0;childLayout=stackLayout;horizontal=1;startSize=26;fillColor=none;horizontalStack=0;resizeParent=1;resizeParentMax=0;resizeLast=0;collapsible=1;marginBottom=0;" parent="WIyWlLk6GJQsqaUBKTNV-1" vertex="1">
          <mxGeometry x="390" y="810" width="140" height="78" as="geometry" />
        </mxCell>
        <mxCell id="mqfXWWTs0hodroWTHxcf-31" value="Date created" style="text;strokeColor=none;fillColor=none;align=left;verticalAlign=top;spacingLeft=4;spacingRight=4;overflow=hidden;rotatable=0;points=[[0,0.5],[1,0.5]];portConstraint=eastwest;" parent="mqfXWWTs0hodroWTHxcf-30" vertex="1">
          <mxGeometry y="26" width="140" height="26" as="geometry" />
        </mxCell>
        <mxCell id="mqfXWWTs0hodroWTHxcf-32" value="String code" style="text;strokeColor=none;fillColor=none;align=left;verticalAlign=top;spacingLeft=4;spacingRight=4;overflow=hidden;rotatable=0;points=[[0,0.5],[1,0.5]];portConstraint=eastwest;" parent="mqfXWWTs0hodroWTHxcf-30" vertex="1">
          <mxGeometry y="52" width="140" height="26" as="geometry" />
        </mxCell>
        <mxCell id="mqfXWWTs0hodroWTHxcf-34" value="User" style="swimlane;fontStyle=0;childLayout=stackLayout;horizontal=1;startSize=26;fillColor=none;horizontalStack=0;resizeParent=1;resizeParentMax=0;resizeLast=0;collapsible=1;marginBottom=0;" parent="WIyWlLk6GJQsqaUBKTNV-1" vertex="1">
          <mxGeometry x="70" y="108" width="140" height="104" as="geometry" />
        </mxCell>
        <mxCell id="mqfXWWTs0hodroWTHxcf-35" value="int ID" style="text;strokeColor=none;fillColor=none;align=left;verticalAlign=top;spacingLeft=4;spacingRight=4;overflow=hidden;rotatable=0;points=[[0,0.5],[1,0.5]];portConstraint=eastwest;" parent="mqfXWWTs0hodroWTHxcf-34" vertex="1">
          <mxGeometry y="26" width="140" height="26" as="geometry" />
        </mxCell>
        <mxCell id="mqfXWWTs0hodroWTHxcf-36" value="String username" style="text;strokeColor=none;fillColor=none;align=left;verticalAlign=top;spacingLeft=4;spacingRight=4;overflow=hidden;rotatable=0;points=[[0,0.5],[1,0.5]];portConstraint=eastwest;" parent="mqfXWWTs0hodroWTHxcf-34" vertex="1">
          <mxGeometry y="52" width="140" height="26" as="geometry" />
        </mxCell>
        <mxCell id="mqfXWWTs0hodroWTHxcf-37" value="String password" style="text;strokeColor=none;fillColor=none;align=left;verticalAlign=top;spacingLeft=4;spacingRight=4;overflow=hidden;rotatable=0;points=[[0,0.5],[1,0.5]];portConstraint=eastwest;" parent="mqfXWWTs0hodroWTHxcf-34" vertex="1">
          <mxGeometry y="78" width="140" height="26" as="geometry" />
        </mxCell>
      </root>
    </mxGraphModel>
  </diagram>
</mxfile>
